<svg xmlns="http://www.w3.org/2000/svg" version="1.1" xmlns:xlink="http://www.w3.org/1999/xlink" xmlns:svgjs="http://svgjs.dev/svgjs" width="1500" height="1500" viewBox="0 0 1500 1500"><g transform="matrix(1,0,0,1,0.000547400628761352,0)"><svg viewBox="0 0 280 280" data-background-color="#ffffff" preserveAspectRatio="xMidYMid meet" height="1500" width="1500" xmlns="http://www.w3.org/2000/svg" xmlns:xlink="http://www.w3.org/1999/xlink"><g id="tight-bounds" transform="matrix(1,0,0,1,-0.0001021814506998453,0)"><svg viewBox="0 0 280 280" height="280" width="280"><g><svg viewBox="0 0 280 280" height="280" width="280"><g><svg viewBox="0 0 280 280" height="280" width="280"><g id="textblocktransform"><svg viewBox="0 0 280 280" height="280" width="280" id="textblock"><g><svg viewBox="0 0 280 280" height="280" width="280"><g transform="matrix(1,0,0,1,74.00336708925556,74.00336708925556)"><svg viewBox="0 0 131.99326582148888 131.99326582148888" height="131.99326582148888" width="131.99326582148888"><g id="icon-0"><svg xmlns="http://www.w3.org/2000/svg" xmlns:xlink="http://www.w3.org/1999/xlink" version="1.1" x="0" y="0" viewBox="0 0 96 96" enable-background="new 0 0 96 96" xml:space="preserve" height="131.99326582148888" width="131.99326582148888" class="icon-xg-0" data-fill-palette-color="accent" id="xg-0"><g fill="#000000" data-fill-palette-color="accent"><path d="M88.861 84.379V0h-6.396v18.829H65.957c-0.551-3.18-3.314-5.601-6.652-5.601s-6.104 2.421-6.654 5.601H34.623c-0.549-3.18-3.314-5.601-6.652-5.601s-6.102 2.421-6.652 5.601h-7.779V0h-6.4v84.379H0V96h96V84.379H88.861zM56.566 14.785c1.723-0.966 3.531-1.013 4.041-0.104s-0.475 2.427-2.197 3.394c-1.723 0.965-3.533 1.012-4.043 0.104C53.859 17.27 54.844 15.75 56.566 14.785zM25.232 14.785c1.725-0.966 3.533-1.013 4.041-0.104 0.51 0.908-0.473 2.427-2.197 3.394-1.723 0.965-3.531 1.012-4.041 0.104S23.51 15.75 25.232 14.785zM13.539 20.691h7.709c0.352 3.402 3.227 6.056 6.723 6.056s6.371-2.653 6.723-6.056h17.889c0.352 3.402 3.227 6.056 6.723 6.056s6.369-2.653 6.721-6.056h16.439v21.103H62.867c-0.455-3.292-3.271-5.829-6.688-5.829-3.418 0-6.234 2.537-6.689 5.829H47.93c-0.455-3.292-3.271-5.829-6.688-5.829-3.418 0-6.234 2.537-6.689 5.829h-1.561c-0.455-3.292-3.271-5.829-6.688-5.829-3.418 0-6.234 2.537-6.689 5.829h-6.076V20.691zM53.441 37.521c1.723-0.966 3.531-1.012 4.041-0.104 0.51 0.908-0.475 2.428-2.197 3.394-1.723 0.965-3.533 1.012-4.043 0.104C50.734 40.007 51.719 38.487 53.441 37.521zM38.504 37.521c1.723-0.966 3.531-1.012 4.041-0.104 0.51 0.908-0.475 2.428-2.197 3.394-1.723 0.965-3.533 1.012-4.043 0.104C35.797 40.007 36.781 38.487 38.504 37.521zM23.566 37.521c1.723-0.966 3.531-1.012 4.041-0.104 0.51 0.908-0.475 2.428-2.197 3.394-1.723 0.965-3.533 1.012-4.043 0.104C20.859 40.007 21.844 38.487 23.566 37.521zM13.539 43.655h6.076c0.455 3.292 3.271 5.829 6.689 5.829 3.416 0 6.232-2.537 6.688-5.829h1.561c0.455 3.292 3.271 5.829 6.689 5.829 3.416 0 6.232-2.537 6.688-5.829h1.561c0.455 3.292 3.271 5.829 6.689 5.829 3.416 0 6.232-2.537 6.688-5.829h19.598v21.103h-6.08c-0.455-3.291-3.27-5.828-6.688-5.828-3.416 0-6.232 2.537-6.688 5.828H50.326c-0.455-3.291-3.271-5.828-6.688-5.828-3.418 0-6.234 2.537-6.689 5.828h-2.291c-0.455-3.291-3.27-5.828-6.688-5.828-3.416 0-6.232 2.537-6.688 5.828h-7.744V43.655zM66.959 60.486c1.725-0.967 3.533-1.014 4.041-0.105 0.51 0.908-0.473 2.428-2.197 3.395-1.723 0.965-3.531 1.012-4.041 0.104S65.236 61.451 66.959 60.486zM40.9 60.486c1.723-0.967 3.531-1.014 4.041-0.105s-0.475 2.428-2.197 3.395c-1.723 0.965-3.533 1.012-4.043 0.104C38.193 62.971 39.178 61.451 40.9 60.486zM25.232 60.486c1.725-0.967 3.533-1.014 4.041-0.105 0.51 0.908-0.473 2.428-2.197 3.395-1.723 0.965-3.531 1.012-4.041 0.104S23.51 61.451 25.232 60.486zM13.539 84.379v-17.76h7.744c0.455 3.291 3.271 5.828 6.688 5.828 3.418 0 6.234-2.537 6.688-5.828h2.291c0.455 3.291 3.271 5.828 6.689 5.828 3.416 0 6.232-2.537 6.688-5.828H63.01c0.455 3.291 3.271 5.828 6.688 5.828 3.418 0 6.234-2.537 6.688-5.828h6.08v17.76H13.539z" fill="#000000" data-fill-palette-color="accent"></path></g></svg></g></svg></g><g id="text-0"><path d="M29.604 100.558c-0.991 2.952-2.64 4.939-4.946 5.961-2.314 1.027-5.099 0.994-8.354-0.1v0c-3.178-1.067-5.39-2.73-6.637-4.989-1.253-2.261-1.374-4.896-0.363-7.906v0c0.731-2.177 1.745-3.698 3.042-4.563 1.295-0.859 2.643-1.053 4.044-0.582v0c0.949 0.319 1.617 0.877 2.003 1.675 0.386 0.798 0.423 1.662 0.111 2.593v0c-0.158 0.471-0.379 0.904-0.662 1.297-0.283 0.394-0.602 0.657-0.956 0.79v0c-0.306-0.908-1.099-1.576-2.377-2.006v0c-0.975-0.328-1.77-0.325-2.385 0.008-0.617 0.339-1.06 0.909-1.329 1.709v0c-0.447 1.331-0.113 2.614 1.003 3.852 1.122 1.239 2.923 2.276 5.403 3.109v0c2.777 0.933 4.989 1.111 6.634 0.535 1.639-0.578 2.77-1.794 3.392-3.648v0c0.447-1.331 0.502-2.566 0.167-3.706-0.34-1.149-1.004-2.041-1.991-2.674v0c0.318-0.368 0.777-0.451 1.377-0.249v0c0.304 0.102 0.626 0.264 0.968 0.487v0c1.198 0.819 1.958 1.98 2.281 3.482 0.315 1.5 0.174 3.142-0.425 4.925z" fill="#000000" data-fill-palette-color="primary"></path><path d="M42.66 74.974c-1.663 2.543-3.743 4-6.239 4.37-2.501 0.376-5.168-0.363-8.003-2.216v0c-2.829-1.849-4.572-3.995-5.231-6.436-0.668-2.439-0.171-4.931 1.492-7.474v0c1.648-2.521 3.723-3.964 6.226-4.331 2.501-0.376 5.165 0.361 7.994 2.211v0c2.834 1.853 4.581 4 5.24 6.441 0.662 2.436 0.17 4.914-1.479 7.435zM41.24 74.045c1.633-2.498-0.074-5.397-5.121-8.696v0c-5.041-3.296-8.379-3.695-10.011-1.197v0c-1.663 2.543 0.026 5.463 5.067 8.759v0c5.047 3.3 8.402 3.678 10.065 1.134z" fill="#000000" data-fill-palette-color="primary"></path><path d="M68.217 41.92c0.574 0.165 1.035 0.443 1.383 0.836v0c0.493 0.556 0.699 1.179 0.619 1.869-0.085 0.685-0.471 1.333-1.159 1.943v0c-0.913 0.809-1.878 1.128-2.895 0.956-1.018-0.172-2.044-0.842-3.08-2.009v0c1.289 3.128 0.718 5.77-1.713 7.926v0c-1.621 1.438-3.213 2.02-4.775 1.748-1.567-0.268-3.323-1.483-5.269-3.647v0l-4.943-5.575c-1.315-1.484-2.571-2.56-3.766-3.23v0c0.135-1.039 0.577-1.891 1.326-2.556v0c0.596-0.529 1.23-0.79 1.9-0.784 0.676 0.002 1.269 0.291 1.78 0.867v0l6.754 7.617c1.546 1.744 2.829 2.851 3.847 3.322 1.019 0.471 1.964 0.321 2.837-0.452v0c0.969-0.859 1.237-2.158 0.805-3.898-0.427-1.734-1.657-3.748-3.691-6.042v0c-1.98-2.233-3.335-3.699-4.065-4.4-0.721-0.7-1.518-1.281-2.394-1.743v0c0.119-1.026 0.564-1.88 1.334-2.563v0c0.571-0.506 1.213-0.748 1.926-0.724 0.713 0.023 1.341 0.341 1.883 0.953v0l8.765 9.822c0.488 0.551 0.902 0.889 1.242 1.016 0.335 0.121 0.631 0.069 0.885-0.157v0c0.377-0.335 0.532-0.699 0.464-1.095z" fill="#000000" data-fill-palette-color="primary"></path><path d="M94.958 25.344c1.036 1.928 1.978 3.276 2.824 4.045v0c-0.428 0.999-1.092 1.719-1.991 2.16v0c-0.71 0.348-1.39 0.431-2.041 0.249-0.651-0.182-1.144-0.615-1.48-1.301v0l-4.502-9.186c-0.978-1.934-1.898-3.262-2.761-3.985-0.869-0.72-1.851-0.812-2.946-0.275v0c-1.187 0.582-1.832 1.759-1.934 3.532-0.096 1.77 0.512 3.994 1.825 6.674v0c1.325 2.704 2.242 4.49 2.751 5.356 0.517 0.87 1.143 1.636 1.878 2.3v0c-0.146 0.368-0.378 0.747-0.694 1.137-0.323 0.394-0.735 0.713-1.238 0.96v0c-0.734 0.36-1.44 0.437-2.118 0.23-0.675-0.216-1.192-0.691-1.552-1.425v0l-5.793-11.82c-0.351-0.655-0.666-1.089-0.945-1.301-0.288-0.216-0.597-0.242-0.927-0.081v0c-0.453 0.222-0.685 0.529-0.698 0.922v0c-0.515-0.339-0.888-0.744-1.119-1.215v0c-0.327-0.667-0.36-1.315-0.099-1.944 0.267-0.632 0.817-1.151 1.649-1.559v0c1.065-0.522 2.06-0.573 2.986-0.154 0.923 0.413 1.746 1.326 2.469 2.739v0c-0.173-1.622 0.056-3.044 0.688-4.264 0.634-1.229 1.701-2.211 3.2-2.946v0c1.946-0.954 3.683-1.054 5.213-0.301 1.53 0.753 2.882 2.328 4.058 4.726v0z" fill="#000000" data-fill-palette-color="primary"></path><path d="M112.422 4.85c0.512-0.113 1.307-0.308 2.383-0.586 1.076-0.278 1.688-0.447 1.834-0.507v0l0.216 1.124c0.06 0.398 0.001 0.718-0.177 0.96-0.177 0.241-0.436 0.399-0.775 0.474v0l-3.523 0.773 0.271 1.238 2.499 11.38c0.301 1.371 1.047 1.926 2.239 1.664v0c0.333-0.073 0.652-0.192 0.957-0.357 0.299-0.163 0.466-0.357 0.501-0.58v0c0.462 0.387 0.752 0.853 0.872 1.399v0c0.164 0.745-0.066 1.431-0.689 2.055-0.616 0.624-1.517 1.066-2.702 1.326v0c-1.451 0.319-2.668 0.112-3.652-0.621-0.984-0.733-1.651-1.898-2.002-3.495v0l-2.856-13.007-0.579 0.127c-1.058 0.232-1.825 0.439-2.302 0.621v0l-0.206-1.127c-0.052-0.365 0.01-0.668 0.188-0.91 0.177-0.241 0.432-0.398 0.765-0.471v0l1.667-0.366-0.614-2.795c-0.164-0.745-0.049-1.384 0.343-1.917 0.399-0.534 0.984-0.886 1.756-1.056v0c0.599-0.132 1.141-0.142 1.626-0.032 0.485 0.11 0.882 0.267 1.191 0.471v0c-0.039 1.411 0.061 2.85 0.3 4.318v0z" fill="#000000" data-fill-palette-color="primary"></path><path d="M160.854 25.004c-3.075-0.489-5.308-1.786-6.697-3.891-1.396-2.112-1.824-4.864-1.284-8.256v0c0.527-3.311 1.801-5.768 3.822-7.37 2.022-1.61 4.601-2.166 7.737-1.667v0c2.268 0.361 3.935 1.109 5.003 2.245 1.061 1.135 1.476 2.432 1.244 3.892v0c-0.157 0.989-0.598 1.74-1.321 2.253-0.723 0.513-1.569 0.692-2.538 0.538v0c-0.491-0.078-0.954-0.224-1.39-0.438-0.435-0.214-0.747-0.485-0.937-0.812v0c0.845-0.452 1.373-1.344 1.585-2.676v0c0.162-1.016 0.028-1.8-0.402-2.351-0.436-0.552-1.072-0.895-1.906-1.028v0c-1.386-0.221-2.597 0.322-3.633 1.626-1.037 1.312-1.76 3.259-2.171 5.843v0c-0.46 2.893-0.271 5.104 0.569 6.631 0.841 1.521 2.227 2.435 4.159 2.742v0c1.386 0.221 2.614 0.071 3.683-0.449 1.077-0.525 1.846-1.328 2.308-2.406v0c0.415 0.252 0.573 0.691 0.473 1.317v0c-0.05 0.316-0.157 0.661-0.32 1.036v0c-0.61 1.317-1.629 2.259-3.057 2.825-1.427 0.559-3.07 0.691-4.927 0.396z" fill="#000000" data-fill-palette-color="primary"></path><path d="M199.427 34.004c0.106 0.599 0.052 1.141-0.165 1.627v0c-0.299 0.672-0.838 1.104-1.616 1.295-0.778 0.191-1.638 0.077-2.577-0.341v0c-1.158-0.515-1.877-1.305-2.157-2.369-0.28-1.064-0.062-2.492 0.653-4.284v0c-1.379 1.206-2.886 1.987-4.52 2.341-1.637 0.361-3.262 0.183-4.874-0.535v0c-1.401-0.623-2.365-1.499-2.892-2.628-0.524-1.135-0.491-2.366 0.099-3.692v0c0.687-1.544 1.835-2.551 3.446-3.02 1.617-0.467 3.442-0.554 5.474-0.261v0c1.821 0.265 3.709 0.833 5.663 1.702v0l0.42-0.943c0.914-2.054 1.32-3.697 1.218-4.928-0.101-1.231-0.781-2.126-2.038-2.685v0c-0.847-0.377-1.634-0.458-2.363-0.246-0.729 0.213-1.307 0.802-1.737 1.767v0c-0.246 0.554-0.375 1.12-0.385 1.697-0.008 0.571 0.174 1.084 0.545 1.54v0c-0.356 0.162-0.774 0.215-1.255 0.157-0.481-0.058-0.965-0.194-1.451-0.41v0c-1.015-0.451-1.691-1.128-2.027-2.031-0.333-0.894-0.289-1.814 0.131-2.76v0c0.631-1.419 1.789-2.221 3.474-2.404 1.682-0.177 3.681 0.25 5.997 1.28v0c2.658 1.182 4.327 2.67 5.006 4.463 0.673 1.791 0.397 4.062-0.827 6.814v0l-2.882 6.481c-0.57 1.282-0.445 2.106 0.377 2.472v0c0.168 0.075 0.371 0.113 0.609 0.114 0.232-0.001 0.45-0.072 0.654-0.213zM187.381 29.777c0.747 0.332 1.653 0.374 2.719 0.124 1.065-0.249 2.093-0.766 3.082-1.549 0.986-0.792 1.748-1.792 2.285-2.999v0c-1.908-0.908-3.555-1.338-4.94-1.291v0c-0.908 0.029-1.714 0.248-2.418 0.658-0.698 0.413-1.219 1.005-1.563 1.777v0c-0.313 0.704-0.416 1.355-0.309 1.954 0.109 0.593 0.491 1.035 1.144 1.326z" fill="#000000" data-fill-palette-color="primary"></path><path d="M225.363 51.301c-1.315 1.749-2.144 3.17-2.486 4.261v0c-1.087 0.03-2.019-0.27-2.796-0.901v0c-0.614-0.498-0.974-1.081-1.082-1.748-0.108-0.667 0.079-1.297 0.559-1.889v0l6.449-7.942c1.345-1.699 2.164-3.092 2.458-4.179 0.289-1.091-0.04-2.021-0.987-2.789v0c-1.026-0.833-2.365-0.924-4.017-0.274-1.647 0.655-3.411 2.141-5.292 4.459v0c-1.898 2.338-3.134 3.919-3.707 4.744-0.572 0.834-1.005 1.725-1.3 2.67v0c-0.395 0.022-0.836-0.029-1.323-0.153-0.493-0.128-0.956-0.368-1.39-0.72v0c-0.635-0.515-1.001-1.124-1.098-1.826-0.087-0.703 0.126-1.372 0.642-2.007v0l8.297-10.219c0.447-0.594 0.708-1.062 0.785-1.404 0.075-0.352-0.03-0.643-0.316-0.875v0c-0.391-0.318-0.768-0.4-1.13-0.246v0c0.092-0.61 0.303-1.119 0.633-1.526v0c0.468-0.577 1.042-0.878 1.723-0.906 0.685-0.023 1.388 0.258 2.107 0.842v0c0.92 0.747 1.385 1.629 1.393 2.646 0.013 1.011-0.47 2.141-1.45 3.391v0c1.4-0.838 2.786-1.226 4.159-1.166 1.382 0.06 2.721 0.616 4.017 1.669v0c1.682 1.366 2.503 2.901 2.461 4.605-0.041 1.704-0.903 3.593-2.587 5.667v0z" fill="#000000" data-fill-palette-color="primary"></path><path d="M245.409 79.486c-0.23 0.547-0.57 0.981-1.02 1.299v0c-0.584 0.414-1.24 0.507-1.969 0.281-0.729-0.227-1.353-0.707-1.873-1.44v0c-0.69-0.973-0.866-1.988-0.53-3.045 0.332-1.063 1.126-2.122 2.381-3.179v0c-1.774 0.514-3.35 0.571-4.728 0.17-1.384-0.397-2.549-1.262-3.495-2.596v0c-1.407-1.984-1.684-3.959-0.831-5.926 0.858-1.97 2.493-3.81 4.905-5.521v0c2.996-2.124 5.739-3.168 8.23-3.129 2.487 0.032 4.511 1.149 6.072 3.35v0c0.717 1.012 1.141 1.998 1.27 2.958 0.13 0.96-0.044 1.835-0.519 2.624v0l2.292-1.626c2.262-1.604 3.975-3.14 5.139-4.609v0c1.05 0.291 1.857 0.834 2.421 1.629v0c0.445 0.628 0.632 1.281 0.561 1.957-0.067 0.683-0.404 1.239-1.01 1.669v0l-17.414 12.298c-1.123 0.796-1.432 1.55-0.928 2.262v0c0.292 0.411 0.64 0.603 1.046 0.574zM237.114 70.596c0.93 1.312 2.477 1.726 4.641 1.245 2.17-0.486 4.438-1.568 6.806-3.248v0c1.467-1.04 2.491-2.088 3.071-3.142 0.576-1.06 0.437-2.193-0.419-3.4v0c-1.742-2.457-5.059-1.951-9.949 1.518v0c-2.029 1.439-3.407 2.717-4.135 3.834-0.728 1.117-0.733 2.182-0.015 3.193z" fill="#000000" data-fill-palette-color="primary"></path><path d="M270.945 102.669l-15.121 5.723c-3.661 1.375-6.616 1.531-8.864 0.468-2.248-1.063-3.92-3.055-5.017-5.976v0c-0.752-2.003-1.066-3.759-0.942-5.269 0.122-1.516 0.888-2.539 2.297-3.068v0c0.765-0.287 1.504-0.241 2.215 0.14 0.704 0.383 1.229 1.034 1.574 1.953v0c0.362 0.963 0.366 1.722 0.014 2.276v0c-0.343-0.235-0.722-0.373-1.138-0.413-0.409-0.043-0.773-0.004-1.092 0.115v0c-0.772 0.29-1.287 0.778-1.546 1.465-0.265 0.689-0.235 1.467 0.091 2.335v0c0.642 1.709 1.857 2.727 3.646 3.052 1.791 0.332 4.007 0.002 6.648-0.99v0c0.695-0.261 1.719-0.548 3.073-0.859v0c-3.494 0.097-5.82-1.399-6.98-4.486v0c-0.726-1.933-0.678-3.588 0.144-4.967 0.819-1.385 2.574-2.593 5.265-3.626v0l6.755-2.537c1.856-0.697 3.311-1.484 4.365-2.359v0c0.922 0.498 1.559 1.216 1.911 2.153v0c0.28 0.746 0.297 1.431 0.051 2.055-0.244 0.63-0.726 1.081-1.446 1.351v0l-9.31 3.497c-2.13 0.8-3.603 1.579-4.417 2.336-0.815 0.757-1.022 1.668-0.622 2.733v0c0.474 1.263 1.584 2.018 3.329 2.265 1.745 0.247 4.014-0.154 6.808-1.203v0c2.768-1.04 4.604-1.773 5.506-2.199 0.899-0.418 1.72-0.952 2.466-1.603v0c0.915 0.479 1.553 1.2 1.915 2.163v0c0.268 0.714 0.264 1.4-0.014 2.058-0.277 0.657-0.798 1.13-1.563 1.417z" fill="#000000" data-fill-palette-color="primary"></path><path d="M8.069 189.076c-1.009-2.996-0.896-5.615 0.34-7.858 1.236-2.243 3.507-3.921 6.813-5.035v0c3.222-1.086 6.029-1.097 8.422-0.033 2.393 1.063 4.102 3.115 5.127 6.156v0c0.744 2.208 0.86 4.057 0.347 5.545-0.519 1.491-1.488 2.475-2.909 2.954v0c-0.969 0.326-1.852 0.286-2.65-0.121-0.801-0.413-1.359-1.088-1.674-2.024v0c-0.163-0.484-0.252-0.972-0.267-1.463-0.006-0.487 0.091-0.893 0.29-1.22v0c0.81 0.547 1.86 0.603 3.152 0.168v0c0.994-0.335 1.635-0.824 1.922-1.467 0.291-0.652 0.299-1.384 0.025-2.198v0c-0.453-1.343-1.509-2.173-3.169-2.491-1.66-0.318-3.749-0.053-6.268 0.795v0c-2.815 0.949-4.712 2.159-5.689 3.632-0.971 1.47-1.14 3.145-0.507 5.024v0c0.455 1.349 1.169 2.381 2.143 3.096 0.976 0.721 2.057 1.036 3.241 0.946v0c-0.029 0.491-0.346 0.839-0.953 1.044v0c-0.31 0.104-0.673 0.169-1.089 0.194v0c-1.471 0.072-2.795-0.399-3.97-1.412-1.178-1.02-2.07-2.43-2.677-4.232z" fill="#000000" data-fill-palette-color="primary"></path><path d="M23.673 219.82c-1.687-2.576-2.197-5.101-1.529-7.575 0.668-2.474 2.439-4.652 5.312-6.533v0c2.867-1.878 5.568-2.629 8.103-2.253 2.535 0.376 4.646 1.852 6.333 4.428v0c1.672 2.554 2.175 5.067 1.506 7.541-0.668 2.474-2.436 4.65-5.303 6.528v0c-2.873 1.882-5.577 2.634-8.111 2.259-2.535-0.376-4.639-1.841-6.311-4.395zM25.118 218.874c1.658 2.531 5.043 2.122 10.155-1.227v0c5.107-3.345 6.832-6.283 5.174-8.813v0c-1.687-2.576-5.085-2.192-10.191 1.153v0c-5.113 3.349-6.825 6.311-5.138 8.887z" fill="#000000" data-fill-palette-color="primary"></path><path d="M58.78 251.37c-0.099 0.595-0.324 1.091-0.677 1.49v0c-0.497 0.561-1.097 0.844-1.802 0.848-0.699 0.009-1.401-0.298-2.105-0.921v0c-0.923-0.817-1.359-1.749-1.307-2.795 0.047-1.05 0.594-2.167 1.642-3.351v0c-2.991 1.683-5.719 1.435-8.184-0.747v0c-1.648-1.459-2.429-2.992-2.343-4.599 0.08-1.612 1.086-3.529 3.016-5.752v0l5.006-5.656c1.332-1.505 2.263-2.901 2.793-4.188v0c1.063 0.012 1.977 0.357 2.742 1.035v0c0.602 0.533 0.943 1.14 1.023 1.82 0.075 0.676-0.145 1.305-0.66 1.886v0l-6.841 7.73c-1.563 1.765-2.518 3.19-2.868 4.273-0.354 1.088-0.089 2.023 0.794 2.804v0c0.985 0.872 2.324 0.983 4.017 0.334 1.698-0.644 3.577-2.129 5.636-4.456v0c2.005-2.265 3.318-3.805 3.94-4.62 0.612-0.814 1.099-1.689 1.462-2.623v0c1.042-0.006 1.954 0.337 2.734 1.028v0c0.582 0.515 0.904 1.132 0.967 1.852 0.063 0.711-0.182 1.377-0.732 2v0l-8.816 10.022c-0.497 0.561-0.785 1.02-0.865 1.377-0.085 0.353 0.006 0.646 0.271 0.882v0c0.378 0.334 0.763 0.443 1.157 0.327z" fill="#000000" data-fill-palette-color="primary"></path><path d="M90.453 266.688c-0.905 2.038-1.4 3.631-1.484 4.781v0c-1.064 0.284-2.055 0.201-2.973-0.248v0c-0.722-0.353-1.21-0.845-1.463-1.477-0.259-0.635-0.217-1.301 0.124-1.999v0l4.552-9.31c0.942-1.989 1.431-3.555 1.467-4.698 0.036-1.143-0.501-1.985-1.609-2.527v0c-1.2-0.587-2.542-0.37-4.026 0.648-1.484 1.019-2.89 2.887-4.219 5.605v0c-1.341 2.742-2.199 4.59-2.574 5.545-0.372 0.948-0.597 1.927-0.673 2.936v0c-0.38 0.11-0.829 0.16-1.347 0.149-0.515-0.017-1.024-0.148-1.526-0.393v0c-0.747-0.365-1.247-0.886-1.499-1.564-0.256-0.671-0.201-1.38 0.164-2.127v0l5.862-11.991c0.305-0.685 0.457-1.206 0.457-1.563-0.006-0.36-0.178-0.622-0.514-0.786v0c-0.459-0.224-0.848-0.221-1.166 0.01v0c-0.051-0.624 0.04-1.175 0.273-1.652v0c0.332-0.679 0.83-1.107 1.493-1.284 0.672-0.18 1.43-0.063 2.275 0.35v0c1.083 0.53 1.745 1.293 1.985 2.29 0.24 0.997 0.02 2.224-0.662 3.681v0c1.19-1.147 2.473-1.847 3.849-2.1 1.375-0.253 2.822-0.008 4.339 0.734v0c1.971 0.964 3.135 2.291 3.491 3.982 0.347 1.694-0.073 3.756-1.261 6.186v0z" fill="#000000" data-fill-palette-color="primary"></path><path d="M116.656 258.561c0.526 0.115 1.342 0.273 2.449 0.473 1.107 0.2 1.743 0.305 1.909 0.313v0l-0.289 1.13c-0.113 0.387-0.301 0.656-0.564 0.807-0.269 0.143-0.573 0.178-0.912 0.104v0l-3.574-0.782-0.276 1.258-2.526 11.541c-0.303 1.384 0.148 2.209 1.353 2.473v0c0.339 0.074 0.682 0.104 1.027 0.088 0.353-0.02 0.59-0.129 0.709-0.326v0c0.263 0.553 0.334 1.105 0.213 1.658v0c-0.166 0.759-0.667 1.294-1.502 1.607-0.834 0.306-1.854 0.327-3.059 0.063v0c-1.464-0.32-2.496-1.024-3.095-2.111-0.598-1.093-0.719-2.452-0.363-4.076v0l2.886-13.189-0.589-0.129c-1.072-0.235-1.866-0.366-2.382-0.396v0l0.289-1.129c0.107-0.36 0.295-0.615 0.565-0.766 0.262-0.145 0.563-0.18 0.902-0.106v0l1.687 0.369 0.618-2.825c0.166-0.759 0.546-1.3 1.14-1.623 0.594-0.323 1.284-0.399 2.069-0.227v0c0.599 0.131 1.099 0.349 1.5 0.652 0.399 0.311 0.7 0.624 0.903 0.941v0c-0.638 1.29-1.157 2.659-1.557 4.105v0z" fill="#000000" data-fill-palette-color="primary"></path><path d="M164.275 279.737c-3.123 0.492-5.686-0.059-7.69-1.654-2.003-1.595-3.277-4.115-3.82-7.561v0c-0.529-3.358-0.069-6.128 1.381-8.309 1.45-2.181 3.76-3.521 6.929-4.02v0c2.302-0.363 4.143-0.167 5.525 0.588 1.382 0.762 2.19 1.883 2.423 3.363v0c0.159 1.01-0.029 1.874-0.563 2.593-0.542 0.72-1.301 1.157-2.277 1.311v0c-0.505 0.08-1.001 0.085-1.487 0.017-0.481-0.076-0.865-0.239-1.154-0.491v0c0.675-0.707 0.906-1.733 0.695-3.079v0c-0.163-1.036-0.538-1.75-1.124-2.14-0.594-0.396-1.314-0.527-2.163-0.394v0c-1.4 0.221-2.396 1.123-2.987 2.706-0.592 1.583-0.681 3.687-0.268 6.312v0c0.463 2.934 1.338 5.007 2.626 6.218 1.287 1.204 2.909 1.652 4.867 1.344v0c1.407-0.222 2.544-0.753 3.412-1.593 0.874-0.841 1.367-1.854 1.477-3.037v0c0.48 0.111 0.769 0.482 0.869 1.115v0c0.051 0.323 0.054 0.692 0.008 1.106v0c-0.176 1.463-0.863 2.688-2.058 3.676-1.203 0.99-2.743 1.633-4.621 1.929z" fill="#000000" data-fill-palette-color="primary"></path><path d="M205.139 261.176c0.525 0.327 0.896 0.736 1.114 1.228v0c0.304 0.685 0.263 1.385-0.121 2.099-0.387 0.708-1.06 1.274-2.02 1.699v0c-1.177 0.522-2.259 0.527-3.244 0.018-0.989-0.516-1.916-1.651-2.784-3.406v0c-0.029 1.853-0.462 3.517-1.299 4.991-0.847 1.47-2.089 2.569-3.727 3.294v0c-1.42 0.629-2.735 0.757-3.944 0.383-1.206-0.367-2.108-1.227-2.707-2.579v0c-0.693-1.564-0.668-3.114 0.075-4.65 0.746-1.53 1.924-2.958 3.536-4.282v0c1.431-1.193 3.141-2.23 5.128-3.11v0l-0.422-0.953c-0.924-2.087-1.886-3.509-2.885-4.267-0.993-0.76-2.127-0.857-3.404-0.291v0c-0.853 0.378-1.45 0.914-1.792 1.609-0.337 0.686-0.288 1.521 0.149 2.505v0c0.248 0.561 0.584 1.042 1.008 1.443 0.421 0.395 0.932 0.608 1.535 0.639v0c-0.124 0.375-0.371 0.727-0.74 1.054-0.372 0.321-0.801 0.589-1.287 0.805v0c-1.034 0.458-2.003 0.507-2.908 0.148-0.904-0.359-1.569-1.019-1.994-1.978v0c-0.64-1.445-0.454-2.858 0.559-4.239 1.01-1.387 2.693-2.601 5.048-3.644v0c2.691-1.192 4.942-1.436 6.751-0.733 1.806 0.713 3.327 2.465 4.564 5.256v0l2.914 6.578c0.574 1.296 1.278 1.759 2.113 1.389v0c0.174-0.077 0.34-0.199 0.498-0.365 0.161-0.176 0.256-0.389 0.286-0.641zM193.772 267.362c0.76-0.337 1.408-0.993 1.945-1.968 0.533-0.966 0.84-2.09 0.922-3.371 0.075-1.278-0.159-2.53-0.703-3.757v0c-1.978 0.817-3.418 1.764-4.32 2.841v0c-0.597 0.704-0.982 1.46-1.153 2.266-0.166 0.804-0.075 1.598 0.273 2.383v0c0.315 0.71 0.734 1.229 1.259 1.555 0.525 0.327 1.117 0.343 1.777 0.051z" fill="#000000" data-fill-palette-color="primary"></path><path d="M232.142 239.352c1.465 1.68 2.701 2.801 3.708 3.363v0c-0.192 1.084-0.685 1.948-1.479 2.591v0c-0.625 0.506-1.277 0.74-1.956 0.702-0.684-0.033-1.271-0.352-1.76-0.955v0l-6.52-8.055c-1.406-1.693-2.619-2.797-3.641-3.312-1.021-0.514-2.011-0.384-2.97 0.392v0c-1.038 0.84-1.408 2.148-1.11 3.923 0.298 1.775 1.398 3.839 3.301 6.191v0c1.921 2.373 3.234 3.93 3.941 4.673 0.702 0.738 1.495 1.354 2.378 1.849v0c-0.061 0.391-0.205 0.819-0.434 1.284-0.233 0.46-0.566 0.866-1 1.217v0c-0.646 0.523-1.33 0.756-2.05 0.7-0.716-0.051-1.336-0.4-1.859-1.046v0l-8.398-10.375c-0.493-0.565-0.901-0.923-1.224-1.073-0.329-0.146-0.639-0.101-0.93 0.135v0c-0.397 0.322-0.558 0.675-0.482 1.061v0c-0.588-0.217-1.049-0.532-1.383-0.945v0c-0.476-0.588-0.654-1.219-0.535-1.895 0.121-0.685 0.546-1.323 1.277-1.915v0c0.937-0.759 1.909-1.037 2.915-0.834 1.006 0.203 2.025 0.921 3.058 2.153v0c-0.538-1.563-0.631-3.022-0.281-4.375 0.351-1.353 1.183-2.562 2.496-3.625v0c1.705-1.38 3.4-1.875 5.084-1.485 1.683 0.4 3.375 1.651 5.076 3.754v0z" fill="#000000" data-fill-palette-color="primary"></path><path d="M257.016 210.99c0.602 0.035 1.133 0.217 1.595 0.544v0c0.589 0.419 0.895 1.017 0.918 1.795 0.022 0.768-0.231 1.524-0.76 2.268v0c-0.699 0.983-1.609 1.493-2.732 1.531-1.128 0.034-2.409-0.375-3.842-1.227v0c1.088 1.526 1.67 3.019 1.745 4.476 0.085 1.456-0.353 2.859-1.312 4.209v0c-1.429 2.01-3.228 2.934-5.396 2.772-2.177-0.16-4.487-1.109-6.93-2.846v0c-3.032-2.156-4.945-4.432-5.741-6.829-0.799-2.391-0.407-4.7 1.176-6.927v0c0.731-1.027 1.534-1.764 2.412-2.21 0.874-0.441 1.766-0.567 2.677-0.378v0l-2.323-1.653c-2.293-1.631-4.335-2.757-6.126-3.378v0c-0.069-1.102 0.183-2.056 0.755-2.861v0c0.45-0.633 1.013-1.031 1.69-1.194 0.671-0.167 1.311-0.033 1.922 0.401v0l17.6 12.566c1.133 0.806 1.954 0.85 2.463 0.134v0c0.296-0.416 0.366-0.814 0.209-1.193zM251.282 221.911c0.948-1.333 0.827-2.957-0.361-4.872-1.188-1.915-2.982-3.726-5.38-5.431v0c-1.488-1.058-2.835-1.686-4.041-1.883-1.206-0.197-2.243 0.315-3.112 1.537v0c-1.769 2.488-0.177 5.493 4.776 9.014v0c2.054 1.461 3.74 2.354 5.055 2.68 1.312 0.331 2.333-0.018 3.063-1.045z" fill="#000000" data-fill-palette-color="primary"></path><path d="M256.853 174.287l15.363 5.751c3.704 1.397 6.06 3.251 7.067 5.56 1.008 2.31 0.953 4.944-0.162 7.902v0c-0.767 2.034-1.705 3.584-2.815 4.651-1.105 1.076-2.371 1.345-3.799 0.807v0c-0.778-0.293-1.309-0.825-1.594-1.596-0.281-0.761-0.247-1.604 0.102-2.528v0c0.37-0.982 0.875-1.567 1.514-1.756v0c0.107 0.412 0.302 0.773 0.585 1.084 0.286 0.304 0.591 0.518 0.917 0.641v0c0.778 0.293 1.495 0.265 2.151-0.085 0.665-0.354 1.162-0.967 1.491-1.84v0c0.654-1.734 0.409-3.323-0.736-4.767-1.142-1.45-3.052-2.681-5.73-3.691v0c-0.708-0.267-1.679-0.732-2.915-1.394v0c2.724 2.258 3.495 4.952 2.315 8.082v0c-0.738 1.957-1.879 3.187-3.423 3.69-1.553 0.507-3.702 0.257-6.447-0.749v0l-6.837-2.579c-1.881-0.709-3.517-1.083-4.908-1.12v0c-0.367-0.998-0.369-1.974-0.009-2.931v0c0.284-0.752 0.729-1.287 1.337-1.604 0.605-0.311 1.271-0.329 1.998-0.054v0l9.438 3.56c2.155 0.813 3.796 1.202 4.923 1.168 1.127-0.034 1.894-0.589 2.3-1.666v0c0.483-1.281 0.143-2.6-1.02-3.957-1.166-1.35-3.164-2.559-5.995-3.626v0c-2.805-1.058-4.693-1.73-5.662-2.016-0.966-0.277-1.95-0.419-2.953-0.426v0c-0.376-0.972-0.38-1.946-0.012-2.921v0c0.274-0.727 0.736-1.248 1.387-1.563 0.642-0.311 1.352-0.32 2.129-0.027z" fill="#000000" data-fill-palette-color="primary"></path><path d="M0 141.109c0-6.121 4.962-11.084 11.084-11.084 6.121 0 11.084 4.962 11.084 11.084 0 6.121-4.962 11.084-11.084 11.084-6.121 0-11.084-4.962-11.084-11.084z" fill="#000000" data-fill-palette-color="primary"></path><path d="M257.557 141.109c0-6.121 4.962-11.084 11.084-11.084 6.121 0 11.084 4.962 11.084 11.084 0 6.121-4.962 11.084-11.084 11.084-6.121 0-11.084-4.962-11.084-11.084z" fill="#000000" data-fill-palette-color="primary"></path></g><g id="text-1"></g></svg></g></svg></g></svg></g><g></g></svg></g><defs></defs></svg><rect width="280" height="280" fill="none" stroke="none" visibility="hidden"></rect></g></svg></g></svg>